<svg width="58" height="107" viewBox="0 0 58 107" fill="none" xmlns="http://www.w3.org/2000/svg">
<rect x="6.24054" y="14.3671" width="46.4367" height="41.019" fill="#DED9D9" stroke="black" stroke-width="3"/>
<rect x="2" y="58.8861" width="53.5633" height="37.3101" fill="#DCDCDC" stroke="black" stroke-width="4"/>
<rect x="40.9557" y="68.0443" width="10.8671" height="10.1899" fill="#DCDCDC" stroke="black" stroke-width="2"/>
<rect x="45.6962" y="95.8102" width="10.8671" height="10.1899" fill="#DCDCDC" stroke="black" stroke-width="2"/>
<rect x="3.03162" y="68.0443" width="10.8671" height="10.1899" fill="#DCDCDC" stroke="black" stroke-width="2"/>
<rect x="1" y="95.8102" width="10.8671" height="10.1899" fill="#DCDCDC" stroke="black" stroke-width="2"/>
<rect x="11.3354" y="9.98105" width="37.6013" height="2.38608" fill="black" stroke="black"/>
<rect x="5.91772" y="53.3228" width="47.0823" height="3.06329" fill="black" stroke="black"/>
<rect x="-0.498424" y="0.50136" width="35.4137" height="2.36415" transform="matrix(0.00314886 0.999995 -0.999996 0.00272455 56.1876 15.8562)" fill="black" stroke="black"/>
<rect x="-0.498424" y="0.50136" width="21.326" height="7.46286" transform="matrix(0.00314886 0.999995 -0.999996 0.00272455 22.7262 28.0941)" fill="black" stroke="black"/>
<rect x="-0.498424" y="0.50136" width="21.326" height="7.46286" transform="matrix(0.00314886 0.999995 -0.999996 0.00272455 42.6367 28.0941)" fill="black" stroke="black"/>
<rect x="-0.498424" y="0.50136" width="3.73063" height="2.46422" transform="matrix(0.00314886 0.999995 -0.999996 0.00272455 40.1573 31.6703)" fill="white" stroke="white"/>
<rect x="-0.498424" y="0.50136" width="3.73063" height="2.46422" transform="matrix(0.00314886 0.999995 -0.999996 0.00272455 20.2317 31.0378)" fill="white" stroke="white"/>
<rect x="-0.498424" y="0.50136" width="35.4137" height="2.36415" transform="matrix(0.00314886 0.999995 -0.999996 0.00272455 5.58257 15.8562)" fill="black" stroke="black"/>
<ellipse cx="27.6256" cy="7.41151" rx="2.61701" ry="6.24189" transform="rotate(-28.4913 27.6256 7.41151)" fill="#148C44"/>
<ellipse cx="33.8399" cy="7.08393" rx="2.54866" ry="6.75113" transform="rotate(31.669 33.8399 7.08393)" fill="#148C44"/>
</svg>
